<svg xmlns="http://www.w3.org/2000/svg" width="512" height="512" viewBox="0 0 512 512"><path d="M280.178 340.44c11.666-56.344 94.745-99.578 94.745-267.87h-237.64c0 168.292 83.082 211.526 94.745 267.87h48.15zM208.68 153.704l32.856-4.538L256 119.326l14.468 29.84 32.852 4.538-23.914 22.977 5.837 32.647L256 193.684l-29.246 15.643 5.84-32.646-23.913-22.976zm-68.24 66.55c5.08 12.362 10.586 23.554 16.195 33.796C93.625 227.6 56.048 164.558 50 97.948h64.554c.38 7.56.913 14.986 1.64 22.262H76.227c6.69 31.363 23.3 73.135 64.214 100.043zm188.836 195.472v23.703H182.93v-23.704c37.9 0 47.897-31.8 49.563-53.023h47.222c1.664 21.224 10.568 53.023 49.56 53.023zM462 97.948c-6.04 66.514-43.518 129.47-106.366 155.988 5.614-10.262 11.125-21.48 16.206-33.87 40.712-26.913 57.26-68.565 63.935-99.856h-39.762c.727-7.275 1.26-14.703 1.64-22.262H462z"/></svg>